<svg id="reactive-graph-logo" width="47.914" height="47.925" viewBox="0 0 12.677 12.68" version="1.1" xmlns="http://www.w3.org/2000/svg"><g id="reactive-graph-logo-environment-layer"><path id="reactive-graph-logo-environment" style="fill:var(--rg-logo-environment-fill,transparent);stroke-width:.000999194px;stroke-dasharray:none" d="M0 0h12.677v12.68H0z"/></g><g id="reactive-graph-logo-applications-layer"><path id="reactive-graph-logo-applications" style="fill:var(--rg-logo-applications-fill,#dc0073);stroke-width:.0126747px" d="M6.337 0c-.187 0-.374.004-.487.013a6.36 6.36 0 0 0-4.785 2.8A6.388 6.388 0 0 0 .09 5.25c-.068.389-.09.66-.09 1.096 0 .615.07 1.124.23 1.703a6.37 6.37 0 0 0 2.324 3.38 6.335 6.335 0 0 0 3.53 1.247c.13.005.269.007.31.005l.267-.01c.442-.015.94-.097 1.42-.234a6.359 6.359 0 0 0 3.49-2.516 6.309 6.309 0 0 0 1.102-3.337c.023-.69-.05-1.31-.228-1.953a6.368 6.368 0 0 0-2.324-3.38A6.378 6.378 0 0 0 6.825.013 7.22 7.22 0 0 0 6.337 0Zm-.015.513a5.765 5.765 0 0 1 2.75.666c2.71 1.332 3.916 4.94 2.552 7.635-1.225 2.746-4.755 4.103-7.499 2.863-2.751-1.08-4.262-4.443-3.253-7.22A5.827 5.827 0 0 1 5.913.529c.136-.01.273-.014.41-.015Z"/></g><g id="reactive-graph-logo-api-layer"><path id="reactive-graph-logo-api" style="fill:var(--rg-logo-api-fill,transparent);stroke-width:.00327903px" d="M21.928 45.761c-1.464-.14-3.434-.565-4.713-1.018-1.026-.364-2.961-1.212-3.757-1.647C7.98 40.1 3.94 34.523 2.602 28.103c-.275-1.319-.384-2.283-.428-3.784-.091-3.108.393-5.674 1.652-8.752 2.62-6.406 8.21-11.239 14.96-12.937a21.898 21.898 0 0 1 8.956-.341c3.932.664 7.926 2.527 10.73 5.007 4.276 3.78 6.927 9.074 7.473 14.927.106 1.137.047 3.854-.105 4.829-.392 2.502-.942 4.225-2.109 6.596-.618 1.258-1.118 2.105-1.821 3.087-3.624 5.064-9.68 8.443-16.19 9.032-.91.082-2.9.079-3.792-.006zm4.475-2.074c2.353-.316 4.498-.962 6.558-1.974.851-.419 2.128-1.148 2.085-1.19-.012-.013-.234.04-.493.117-1.95.58-4.173.154-5.823-1.118-.594-.458-1.458-1.398-1.776-1.935a6.275 6.275 0 0 1-.887-3.294l.01-.58-.68-1.025a29.44 29.44 0 0 0-.958-1.373l-.277-.348-.502-.041c-.276-.022-.978-.177-1.56-.344l-1.06-.304-.239.122c-.552.283-.847.871-.993 1.977-.145 1.103-.373 1.723-.942 2.563-.584.863-1.746 1.818-2.75 2.262-2.296 1.015-5.35.733-7.199-.665-.197-.15-.372-.257-.39-.24-.06.06.998 1.253 1.831 2.062 3.11 3.02 7.14 4.871 11.878 5.457.502.062 3.416-.028 4.167-.13zm7.255-4.826c.574-.122 1.067-.372 1.728-.877.688-.524 1.022-.923 1.335-1.591.903-1.93.128-4.641-1.671-5.845-.662-.443-1.21-.625-2.02-.674-.456-.027-.712-.076-.86-.164-.342-.206-.947-.887-1.366-1.537l-.868-1.344c-.467-.724-.475-.743-.444-1.113.019-.229.085-.45.167-.563.318-.43 1.16-.695 2.55-.8.32-.025.792-.073 1.05-.108.454-.062.48-.057.803.141 1.476.908 3.518.661 4.84-.585.415-.393.542-.57.822-1.151.489-1.015.584-1.666.373-2.559-.262-1.11-1.191-2.247-2.286-2.794-.587-.294-1.307-.489-1.815-.49-.841-.004-1.925.424-2.306.912-.425.545-1.043 1.106-1.459 1.325-.854.451-1.904.6-2.722.388-.6-.156-.715-.251-.715-.59 0-.24.04-.32.272-.54.23-.219.426-.308 1.26-.572.869-.275 1.05-.36 1.522-.71.644-.477.955-.827 1.273-1.434.335-.64.462-1.195.462-2.016-.002-2.416-1.655-4.474-3.757-4.677-1.618-.156-2.878.268-3.933 1.322-.535.535-.858 1.036-1.112 1.723-.165.45-.168.49-.115 1.588.101 2.102.048 2.459-.448 3.022-.255.29-.28.301-.682.312-.313.009-.611.087-1.184.311-.969.379-1.247.429-1.592.284-.405-.169-.574-.36-.574-.651 0-.412-.252-1.271-.526-1.792-.321-.613-1.063-1.373-1.625-1.668-.577-.302-1.055-.428-1.808-.475-1.428-.09-2.549.463-3.34 1.646-.921 1.377-1.059 3.01-.369 4.373.199.391.918 1.132 1.415 1.456.448.293.848.404 1.916.535 1.72.21 2.268.623 2.34 1.767.028.44.012.513-.2.92-.276.53-.716.91-1.765 1.518a19.33 19.33 0 0 0-1.127.706l-.411.289-.478-.124c-2.375-.62-5.066.973-5.954 3.522-.17.49-.19.64-.19 1.435 0 .827.015.932.224 1.537.312.898.642 1.46 1.168 1.986 1.023 1.022 2.33 1.49 3.928 1.408.891-.046 1.379-.166 2.123-.524a4.44 4.44 0 0 0 2.063-2.034c.214-.43.255-.59.302-1.202.136-1.738.851-2.854 2.284-3.562.674-.333.934-.322 2.234.094 1.184.379 1.613.451 2.064.35.297-.066.334-.058.62.139.4.274.83.799 1.5 1.83.564.867 1.224 1.822 1.478 2.141.132.165.138.213.068.492-.098.39-.1 1.293-.003 1.765.04.199.199.622.351.94.23.48.383.686.899 1.199.704.7 1.388 1.106 2.243 1.33.57.149 1.503.176 2.048.06zm4.948-1.238c2.086-2.175 3.827-5.236 4.73-8.317.759-2.592.906-5.653.413-8.573-.975-5.772-4.393-10.947-9.114-13.8a20.785 20.785 0 0 0-8.54-2.876c-1.347-.144-3.64-.097-4.93.1a20.335 20.335 0 0 0-9.586 4.219c-.788.627-2.37 2.225-3.071 3.1-3.504 4.38-5.031 10.091-4.128 15.44a21.83 21.83 0 0 0 1.433 4.812c.327.747.473.962.385.57-.027-.124-.05-.763-.05-1.42.001-1.051.02-1.265.163-1.764.677-2.378 2.8-4.418 5.242-5.037.775-.197 1.682-.268 2.28-.18l.444.066.718-.432c1.076-.648 1.053-.624.647-.68-1.208-.169-2.26-.51-2.918-.947-.534-.355-1.47-1.304-1.75-1.773a6.772 6.772 0 0 1-.675-1.626c-.183-.661-.162-2.362.038-3.1.455-1.685 1.683-3.231 3.12-3.93 1.671-.813 3.894-.753 5.494.148 1.214.683 2.313 1.952 2.752 3.177.173.48.212.499.647.301.426-.193.453-.287.36-1.22-.131-1.309.028-2.326.516-3.294.462-.915 1.358-1.956 2.158-2.506A6.77 6.77 0 0 1 29.16 6.9c1.82.004 3.128.542 4.385 1.803a6.872 6.872 0 0 1 1.855 3.303c.119.481.17 2.338.075 2.68l-.048.171.594.006c1.97.02 3.954 1.142 5.136 2.908.678 1.01.986 2.007.98 3.166-.007 1.74-.901 3.516-2.367 4.7-1.601 1.294-4.175 1.62-6.042.765-.324-.148-.436-.165-.86-.132-.636.05-.795.085-.795.174 0 .103.704 1.16.874 1.313.089.08.323.148.64.188 1.91.24 3.515 1.373 4.588 3.239.636 1.106.907 2.316.85 3.78-.042 1.027-.268 1.83-.761 2.693-.167.29-.28.529-.25.529.028 0 .295-.254.592-.564z" transform="scale(.26458)"/></g><g id="reactive-graph-logo-runtime-layer"><path id="reactive-graph-logo-runtime" style="fill:var(--rg-logo-runtime-fill,transparent);stroke-width:.001px;stroke-dasharray:none" d="M6.136 1.058A5.259 5.259 0 0 0 2.37 2.91C1.323 4.119.854 5.826 1.22 7.392c.09.416.23.82.42 1.2-.08-.429-.049-.894.182-1.275.37-.682 1.18-1.134 1.957-.986.141-.093.291-.173.431-.269-.339-.033-.75-.12-1.016-.393-.688-.548-.673-1.666-.097-2.288.367-.447.992-.598 1.541-.461.546.122.994.573 1.152 1.105.158-.032.272-.082.212-.266-.029-.342-.03-.703.156-1.006a1.755 1.755 0 0 1 1.704-.93c.843.025 1.512.819 1.549 1.636.011.155.002.312-.026.465.942-.082 1.868.787 1.772 1.743-.077.626-.515 1.218-1.138 1.385a1.586 1.586 0 0 1-1.21-.107c-.091.042-.429-.031-.277.126.096.115.152.329.331.31.785.077 1.39.79 1.467 1.554.06.407-.046.84-.286 1.174.71-.664 1.187-1.553 1.45-2.481.56-2.21-.467-4.748-2.472-5.865a5.359 5.359 0 0 0-2.887-.705Zm-.569 6.964c-.275.101-.315.413-.328.665-.151.805-.977 1.356-1.773 1.326-.434.011-.87-.13-1.205-.407.86 1.128 2.22 1.83 3.622 1.977a5.592 5.592 0 0 0 2.327-.334c.371-.14.73-.315 1.061-.532-.655.27-1.454.052-1.919-.474a1.594 1.594 0 0 1-.454-1.311c-.176-.237-.32-.514-.512-.728-.284.003-.55-.121-.819-.182Z"/></g><g id="reactive-graph-logo-flows-layer"><path id="reactive-graph-logo-flows" style="fill:var(--rg-logo-flows-fill,#dc0073);stroke-width:.0126747px" d="M7.752 2.349 7.7 2.35c-.536-.006-1.024.383-1.163.897-.098.445.206.87-.2 1.225-.37-.079-.721.402-1.002.04.003-.542-.436-1.09-1.013-1.097-1.013-.128-1.546 1.359-.692 1.91.345.33.996.03 1.172.518.17.618-.534.743-.912 1.072-.998-.381-2.093.738-1.666 1.724.355 1.128 2.121 1.125 2.484.004.013-.576.18-.94.759-1.169.315-.057.706.297 1.086.162.36.18.598.817.921 1.154-.341 1.035 1.034 1.972 1.87 1.264.936-.62.355-2.263-.77-2.141-.337-.164-.537-.674-.77-.967-.146-.599.722-.459 1.129-.562.5.407 1.344.183 1.582-.416.505-.936-.802-1.984-1.604-1.28-.23.445-.907.617-1.287.395-.139-.416.537-.338.768-.569.934-.585.44-2.176-.64-2.165Zm-.12.545a.667.667 0 0 1 .618.975.702.702 0 0 1-.43.338.934.934 0 0 1-.4-.02l-.287.48-.286.477.076.047c.162.1.318.293.399.492.032.08.047.103.064.1a1191.81 1191.81 0 0 0 1.573-.206c.005 0 .016-.042.023-.093a.534.534 0 0 1 .615-.467.535.535 0 0 1 .436.639.53.53 0 0 1-.9.26l-.074-.074-.82.109c-.45.06-.821.108-.825.108a.327.327 0 0 0-.016.096 1.07 1.07 0 0 1-.285.641.488.488 0 0 0-.065.08c0 .006.016.03.035.056l.045.06c.008.015-.191.17-.216.17a.278.278 0 0 1-.058-.07l-.048-.068-.068.03a1.045 1.045 0 0 1-1.119-.202.682.682 0 0 0-.085-.07c-.007 0-1.411.932-1.43.95-.006.005.009.048.033.096a.999.999 0 0 1 .064.166c.025.099.026.293 0 .392a.822.822 0 0 1-.588.581.982.982 0 0 1-.19.019.795.795 0 0 1-.709-1.151c.2-.405.726-.567 1.104-.34l.072.044.747-.499.748-.498-.03-.074a1.013 1.013 0 0 1-.013-.754l.042-.111-.059-.047-.07-.056c-.01-.008.09-.158.146-.22.006-.006.04.011.078.04.064.05.07.05.083.028a1.078 1.078 0 0 1 .947-.324l.077.01.301-.501.301-.502-.045-.053a.68.68 0 0 1-.127-.586.675.675 0 0 1 .617-.498ZM4.222 3.955c.364 0 .614.342.506.692l-.027.087.041.033c.03.024.038.039.03.051a2.259 2.259 0 0 1-.154.202.34.34 0 0 1-.055-.039l-.05-.04-.085.035v.001a.613.613 0 0 1-.346.025.535.535 0 0 1-.338-.282.4.4 0 0 1-.052-.2.494.494 0 0 1 .142-.398.503.503 0 0 1 .388-.167Zm.769 1.001c.003 0 .052.036.11.079l.107.081a.872.872 0 0 1-.076.112.95.95 0 0 1-.087.108c-.004 0-.054-.035-.111-.077-.065-.049-.103-.084-.099-.095.008-.02.148-.208.156-.208zM7.27 7.221c.017-.01.173.203.162.22a1.078 1.078 0 0 1-.106.082c-.055.038-.103.07-.106.07a.945.945 0 0 1-.153-.227 5.84 5.84 0 0 1 .203-.145zm.317.433c.008 0 .013.004.02.012.036.044.137.192.136.202a1.373 1.373 0 0 1-.212.152.431.431 0 0 1-.089-.105l-.078-.11.028-.021c.016-.012.066-.049.112-.081.049-.035.07-.049.083-.05zm.308.43c.009-.002.014.003.02.011l.08.114.066.091-.108.077a.969.969 0 0 1-.118.077c-.01 0-.138-.177-.15-.206-.004-.013.029-.044.103-.098a.397.397 0 0 1 .107-.067zm.733.371c.062 0 .096.007.15.023.23.07.418.28.462.515a.67.67 0 0 1-.442.754.732.732 0 0 1-.357.02.675.675 0 0 1-.5-.484.684.684 0 0 1 .054-.475c.036-.07.036-.071.013-.101a.155.155 0 0 1-.023-.038c0-.005.049-.044.11-.087.095-.068.112-.076.124-.059.013.017.025.015.109-.02a.518.518 0 0 1 .229-.046l.071-.002z"/></g><g id="reactive-graph-logo-relations-layer"><path id="reactive-graph-logo-relations" style="fill:var(--rg-logo-relations-fill,black);stroke-width:.00327903px" transform="scale(.26458)" d="M31.96 36.889c-.71-.147-1.457-.76-1.77-1.454-.272-.603-.271-1.324.001-1.983.143-.347.173-.486.115-.543-.043-.043-.077-.099-.077-.124 0-.089.74-.556.83-.524.05.018.245-.023.433-.09.829-.298 1.602-.229 2.271.203 1.063.687 1.446 1.985.918 3.108-.48 1.019-1.654 1.626-2.721 1.407zm.747-.96c.336-.094.722-.437.878-.781.18-.396.167-1.02-.028-1.364-.448-.79-1.485-1.025-2.182-.492-.771.59-.81 1.753-.08 2.357.406.335.876.428 1.412.28zm-3.328-4.343c-.134-.175-.243-.36-.243-.41 0-.084.587-.566.693-.57.057-.002.536.66.536.74 0 .05-.286.269-.66.506-.054.034-.17-.061-.326-.266zm-1.042-1.48c-.185-.206-.452-.599-.422-.62.014-.01.183-.13.376-.27.193-.138.366-.251.384-.251.019 0 .152.17.295.379l.261.38-.201.161c-.111.089-.282.21-.38.268-.167.099-.186.096-.313-.046zm-1.312-1.813c-.117-.182-.212-.364-.212-.404 0-.04.15-.18.334-.313l.335-.24.132.148c.164.183.428.566.428.618 0 .046-.694.521-.76.521-.025 0-.14-.149-.257-.33zM12.33 33.86c-1.873-.422-2.88-2.486-2.047-4.192a2.978 2.978 0 0 1 4.138-1.29l.289.16 2.823-1.88a1613.54 1613.54 0 0 0 2.84-1.893c.01-.008-.066-.242-.168-.52-.161-.443-.185-.607-.184-1.293.002-.674.027-.857.182-1.29l.18-.506-.178-.144a5.154 5.154 0 0 0-.25-.19c-.064-.042.384-.807.474-.807.02 0 .152.066.292.146l.255.147.27-.252a4.532 4.532 0 0 1 1.467-.87c.377-.135.58-.159 1.336-.16l.892-.002 1.138-1.898 1.139-1.898-.23-.3c-.351-.46-.484-.873-.483-1.506 0-.453.033-.617.193-.963.23-.5.69-.97 1.207-1.235.338-.173.444-.192 1.059-.192.617 0 .718.018 1.048.192 1.265.666 1.75 2.042 1.163 3.297-.201.429-.69.92-1.16 1.165-.322.168-.445.192-.983.194-.338 0-.707-.021-.82-.05l-.205-.051-1.059 1.787c-.582.982-1.067 1.809-1.079 1.837-.01.027.158.176.376.33.526.372.998.95 1.306 1.597.223.47.272.529.438.529.161 0 4.96-.612 5.668-.722.244-.039.254-.052.33-.427.205-1.003.87-1.628 1.814-1.704a1.835 1.835 0 0 1 1.426.475c.69.607.886 1.526.495 2.322-.347.707-.98 1.106-1.756 1.106-.544 0-.957-.17-1.396-.575l-.313-.288-3.08.402c-1.693.22-3.104.417-3.135.436-.03.019-.103.305-.16.637a4.327 4.327 0 0 1-.926 2.01c-.192.235-.35.446-.35.468 0 .022.066.132.146.244l.145.203-.23.196a3.06 3.06 0 0 1-.391.283c-.17.093-.16.1-.45-.303-.084-.115-.102-.115-.39.009-1.309.56-2.878.298-4.075-.683-.233-.19-.462-.332-.509-.314-.093.037-5.24 3.446-5.336 3.536-.032.03.04.309.16.62.203.53.216.61.194 1.287-.02.625-.048.774-.213 1.11-.344.701-1.043 1.341-1.727 1.582-.41.145-1.17.188-1.6.09zm1.386-1.124c.398-.223.81-.715.927-1.105.213-.712.001-1.58-.498-2.04-.446-.411-.685-.51-1.31-.545-.633-.034-.978.079-1.419.465-.515.453-.78 1.346-.598 2.019.162.598.67 1.14 1.286 1.37.42.157 1.176.08 1.612-.164zm11.272-7.007c2.334-1.146 2.322-4.352-.02-5.469-.417-.198-.493-.211-1.23-.21-.757 0-.804.008-1.264.234a2.995 2.995 0 0 0-.49 5.125c.589.444.969.553 1.856.532.668-.015.796-.039 1.148-.212zm11.178-3.833c.36-.187.551-.488.551-.87 0-.424-.182-.748-.506-.902-.653-.31-1.36.064-1.455.767-.1.746.745 1.349 1.41 1.005zm-6.85-7.013c.241-.074.742-.579.845-.85.106-.279.075-.86-.062-1.16-.497-1.094-2.112-1.149-2.656-.09-.321.623-.153 1.483.366 1.879.461.352.885.414 1.508.221zm-10.65 4.952c-.179-.134-.325-.272-.325-.307 0-.035.113-.215.251-.4.247-.33.255-.334.427-.232.097.057.275.186.397.287l.221.183-.275.358c-.152.198-.297.358-.324.357-.026-.001-.194-.112-.372-.246zm-3.263-.977c-.508-.155-.993-.58-1.245-1.09-.22-.449-.218-1.217.005-1.647.663-1.277 2.308-1.518 3.245-.476.485.539.628 1.192.417 1.901-.104.35-.103.36.049.483l.154.125-.291.386-.291.386-.198-.14-.197-.142-.412.14c-.415.139-.921.17-1.236.074zm.868-1.027a.928.928 0 0 0 .431-.685c.037-.435-.005-.568-.266-.828-.251-.252-.287-.265-.69-.265-.405 0-.44.013-.692.265-.24.24-.265.299-.265.618 0 .643.358 1.029.956 1.029.185 0 .395-.053.526-.134z"/></g><g id="reactive-graph-logo-entities-layer"><path id="reactive-graph-logo-entities" style="fill:var(--rg-logo-entities-fill,#dc0073);stroke-width:.0126747px" d="M3.22 8.703a.53.53 0 0 1-.36-.587.518.518 0 0 1 .742-.38.519.519 0 0 1-.003.934.372.372 0 0 1-.206.046.588.588 0 0 1-.173-.013zm5.184.793a.376.376 0 0 1-.255-.34.346.346 0 0 1 .1-.289.349.349 0 0 1 .286-.126c.115 0 .207.043.287.13a.39.39 0 0 1-.123.609.419.419 0 0 1-.295.016zm.973-3.695a.321.321 0 0 1-.097-.065.238.238 0 0 1-.057-.28c.06-.129.204-.19.328-.138.177.074.22.288.086.418a.246.246 0 0 1-.26.065zM7.522 3.954a.384.384 0 0 1-.203-.126.389.389 0 0 1 .13-.613.449.449 0 0 1 .32.002.452.452 0 0 1 .19.19c.024.048.029.08.029.167 0 .092-.006.118-.034.172a.44.44 0 0 1-.193.183.451.451 0 0 1-.239.025zM6.093 6.85a.764.764 0 0 1-.362-.214.706.706 0 0 1-.208-.357.78.78 0 0 1 .179-.72.77.77 0 0 1 .319-.214.54.54 0 0 1 .256-.04.66.66 0 0 1 .371.084c.122.06.273.213.335.34a.783.783 0 0 1 .061.55.706.706 0 0 1-.209.357.757.757 0 0 1-.367.214.978.978 0 0 1-.375 0zM4.065 4.733a.248.248 0 0 1-.152-.233c0-.085.023-.136.086-.193.058-.052.111-.067.207-.058.07.007.11.031.168.103.074.09.058.25-.032.334a.272.272 0 0 1-.277.047z"/></g></svg>