<svg width="48" height="48" id="business" version="1.1" xmlns="http://www.w3.org/2000/svg"><path fill-rule="evenodd" d="M24 0A24 24 0 0 0 0 24a24 24 0 0 0 24 24 24 24 0 0 0 24-24A24 24 0 0 0 24 0zm5 11c1.375 0 2.5 1.125 2.5 2.5S30.375 16 29 16a2.47 2.47 0 0 1-.908-.178l-2.205 3.674a3.996 3.996 0 0 1 1.955 2.455l6.172-.822C34.01 21.085 34 21.044 34 21c0-1.099.901-2 2-2s2 .901 2 2-.901 2-2 2a2 2 0 0 1-1.668-.906l-6.338.845c0 .021.006.04.006.061 0 1.2-.544 2.268-1.387 3.002l.375.521-.814.582-.389-.546A3.948 3.948 0 0 1 24 27c-1.204 0-2.273-.548-3.008-1.395l-5.531 3.688c.338.485.539 1.073.539 1.707 0 1.651-1.35 3-3 3s-3-1.349-3-3c0-1.65 1.35-3 3-3 .65 0 1.25.215 1.742.57l5.694-3.795A3.939 3.939 0 0 1 20 23c0-.646.169-1.25.443-1.791l-.543-.408.6-.801.504.379A3.976 3.976 0 0 1 24 19c.326 0 .64.049.943.123l2.307-3.846a2.49 2.49 0 0 1-.75-1.777c0-1.375 1.125-2.5 2.5-2.5zm0 1c-.834 0-1.5.666-1.5 1.5S28.166 15 29 15s1.5-.666 1.5-1.5S29.834 12 29 12zm-13 3c1.099 0 2 .901 2 2 0 .341-.095.657-.248.94l.348.261-.6.799-.428-.32c-.31.2-.677.32-1.072.32-1.099 0-2-.901-2-2s.901-2 2-2zm0 1c-.558 0-1 .442-1 1s.442 1 1 1 1-.442 1-1-.442-1-1-1zm2.9 2.8.8.6-.6.801-.8-.6.6-.8zM24 20c-1.663 0-3 1.337-3 3s1.337 3 3 3 3-1.337 3-3-1.337-3-3-3zm12 0c-.558 0-1 .442-1 1s.442 1 1 1 1-.442 1-1-.442-1-1-1zm-8.43 7.338.58.814-.814.58-.58-.812.814-.582zm1.162 1.627.58.814-.812.58-.582-.812.814-.582zM13 29c-1.11 0-2 .89-2 2 0 1.11.89 2 2 2 1.11 0 2-.89 2-2 0-1.11-.89-2-2-2zm16.895 1.592.58.814-.813.582-.582-.814.815-.582zM32.5 32c1.375 0 2.5 1.125 2.5 2.5S33.875 37 32.5 37a2.508 2.508 0 0 1-2.5-2.5c0-.525.166-1.013.445-1.416l-.203-.283.815-.58.119.168A2.47 2.47 0 0 1 32.5 32zm0 1c-.834 0-1.5.666-1.5 1.5s.666 1.5 1.5 1.5 1.5-.666 1.5-1.5-.666-1.5-1.5-1.5z" id="path55" style="fill:#000"/><path style="fill:#000;stroke-width:.0479042px" d="M23.042 47.948c-4.799-.183-9.438-1.822-13.344-4.715-4.223-3.128-7.37-7.704-8.78-12.774-.61-2.19-.87-4.114-.871-6.435-.001-1.65.083-2.674.34-4.144.57-3.266 1.849-6.46 3.683-9.197A24.037 24.037 0 0 1 19.473.46c.83-.16 1.863-.3 2.683-.365.859-.067 2.823-.067 3.688 0A24.106 24.106 0 0 1 38.3 4.764c4.244 3.154 7.371 7.703 8.783 12.777.676 2.429.95 4.776.863 7.381-.15 4.467-1.593 8.836-4.165 12.61-3.12 4.58-7.865 8.003-13.193 9.515-1.815.514-3.696.824-5.365.882-.396.014-.848.032-1.006.04-.159.007-.687-.002-1.174-.021zm10.26-11.064a2.534 2.534 0 0 0 1.673-2.848c-.167-.89-.877-1.685-1.744-1.948-.274-.083-.416-.096-.84-.078-.435.019-.563.044-.866.172-.315.134-.361.142-.41.076-.047-.065-.11-.035-.47.222-.23.164-.417.311-.416.328 0 .017.04.082.089.145.086.112.085.119-.05.383a2.584 2.584 0 0 0-.204 1.795c.232.9.977 1.621 1.888 1.827.398.09.95.06 1.35-.074zM13.7 33.937c1.053-.247 1.96-1.142 2.227-2.199.094-.37.092-1.105-.003-1.48a3.768 3.768 0 0 0-.241-.625c-.092-.182-.15-.346-.129-.365.075-.069 5.38-3.591 5.407-3.591.016 0 .162.12.324.267.837.758 1.867 1.128 2.945 1.058.509-.033.887-.12 1.283-.295l.258-.115.18.26c.099.142.198.259.22.26.094.004.845-.583.815-.637a3.446 3.446 0 0 0-.169-.23.91.91 0 0 1-.135-.21c0-.018.111-.155.247-.304.633-.69 1-1.517 1.077-2.422.017-.2.044-.362.06-.362s1.421-.184 3.123-.411l3.094-.412.283.283a2.006 2.006 0 0 0 3.402-.983c.248-1.116-.493-2.2-1.65-2.416-.616-.114-1.32.127-1.775.608a2.03 2.03 0 0 0-.548 1.157c-.028.194-.069.353-.09.353-.022 0-1.349.173-2.949.384-1.6.211-2.947.39-2.994.395-.066.009-.123-.08-.244-.38-.303-.752-.895-1.481-1.507-1.86l-.287-.176 1.081-1.804c.594-.993 1.084-1.81 1.088-1.815.003-.006.111.021.24.06.267.08.956.09 1.27.018.639-.147 1.326-.688 1.624-1.278.678-1.343.102-2.92-1.278-3.502-1.374-.579-3.006.239-3.386 1.696-.196.753-.001 1.653.48 2.214l.171.202-1.137 1.896-1.138 1.897-.29-.04c-1.17-.159-2.262.133-3.158.845-.202.16-.391.331-.423.381-.053.085-.07.08-.313-.104-.147-.11-.274-.175-.296-.15-.207.23-.585.798-.551.827.024.021.142.117.264.214l.22.176-.156.419c-.351.937-.335 1.902.048 2.85l.113.281-2.825 1.884-2.826 1.884-.271-.164c-1.427-.86-3.414-.25-4.172 1.28-.994 2.007.443 4.342 2.678 4.353a3.75 3.75 0 0 0 .719-.072zm16.406-2.23.408-.291-.243-.343-.308-.432c-.061-.085-.088-.073-.479.209-.28.202-.405.321-.387.368.043.11.527.78.566.78.019.001.218-.13.443-.29zm-1.17-1.625c.207-.144.378-.28.379-.301.001-.038-.377-.596-.517-.762-.065-.078-.091-.068-.387.14-.174.123-.364.26-.422.304l-.107.081.295.415c.161.228.314.408.338.4.025-.008.214-.133.421-.277zm-1.197-1.605a4.12 4.12 0 0 0 .401-.305c.042-.067-.548-.872-.611-.834-.074.044-.715.5-.77.547-.037.032.517.858.577.858.014 0 .195-.12.403-.266zm-8.299-8.675c.167-.225.296-.414.287-.42l-.408-.308a5.467 5.467 0 0 0-.413-.296c-.03 0-.558.706-.588.785-.015.04.126.177.37.358.217.162.407.294.422.293.014-.002.163-.187.33-.412zm-2.662-.947.324-.132.186.148c.102.08.196.147.21.147.022 0 .501-.626.583-.762.028-.047-.006-.105-.115-.194l-.156-.127.1-.326c.41-1.324-.534-2.615-1.911-2.615-.591 0-1.064.203-1.466.63-.41.436-.57.882-.536 1.506.017.337.047.451.198.756.261.53.705.9 1.277 1.066.345.1.924.057 1.306-.097z" id="path685"/><path style="fill:#000;stroke-width:.0479042px" d="M15.617 17.888a.939.939 0 0 1-.575-.882c0-.32.086-.512.325-.728.219-.197.42-.253.783-.219.264.026.417.12.635.389.277.341.218.945-.122 1.262-.261.244-.716.321-1.046.178z" id="path687"/><path style="fill:#000;stroke-width:.0479042px" d="M23.281 25.889c-.525-.138-.955-.392-1.367-.807-.44-.443-.649-.8-.79-1.35a2.95 2.95 0 0 1 .677-2.72 2.908 2.908 0 0 1 1.208-.81c.357-.134.444-.148.967-.15.633-.002.851.047 1.403.316.46.224 1.032.805 1.267 1.285.33.674.409 1.379.23 2.079-.141.55-.35.907-.79 1.35-.42.422-.848.672-1.39.81-.355.09-1.065.088-1.415-.003z" id="path689"/><path style="fill:#000;stroke-width:.0479042px" d="M28.682 14.944a1.451 1.451 0 0 1-.767-.475 1.469 1.469 0 0 1 .49-2.32c.318-.146.902-.141 1.21.01.286.141.576.43.717.718.09.182.11.302.11.632-.001.346-.02.444-.128.65-.15.285-.45.571-.727.693-.247.107-.668.15-.905.092z" id="path691"/><path style="fill:#000;stroke-width:.0479042px" d="M35.691 21.926a1.217 1.217 0 0 1-.366-.247c-.304-.293-.386-.69-.216-1.056.226-.49.772-.72 1.24-.525.669.28.836 1.09.327 1.58-.292.281-.62.364-.985.248z" id="path693"/><path style="fill:#000;stroke-width:.0479042px" d="M32.015 35.89a1.422 1.422 0 0 1-.963-1.282c-.03-.465.072-.76.376-1.093.313-.342.623-.48 1.083-.478.434.002.783.16 1.083.494.645.717.412 1.875-.462 2.298a1.582 1.582 0 0 1-1.117.061z" id="path695"/><path style="fill:#000;stroke-width:.0479042px" d="M12.42 32.891c-.935-.305-1.533-1.278-1.36-2.218.242-1.312 1.623-2.018 2.806-1.433.567.28.93.751 1.06 1.374a1.962 1.962 0 0 1-1.071 2.156c-.286.142-.373.162-.777.174-.291.008-.528-.01-.657-.053z" id="path697"/><path style="fill:#fff;stroke:#04e762;stroke-width:.0022994px" d="M15.533 18.921c-.746-.188-1.353-.86-1.482-1.643-.136-.82.34-1.68 1.147-2.077.251-.123.32-.135.802-.135.503 0 .542.007.849.161.779.391 1.242 1.26 1.096 2.054-.032.173-.089.375-.127.448-.1.192-.088.247.075.355.079.053.134.122.122.153a4.19 4.19 0 0 1-.273.393l-.25.334-.178-.14c-.098-.078-.2-.141-.225-.141-.026 0-.17.056-.321.125-.306.14-.91.195-1.235.113zm.899-.998c.645-.294.788-1.141.279-1.655-.187-.19-.397-.268-.711-.268-.314 0-.524.079-.711.268-.651.657-.208 1.742.711 1.742.132 0 .326-.04.432-.087z" id="path994"/><path style="fill:#fff;stroke:#04e762;stroke-width:.0022994px" d="M18.707 19.874c-.172-.132-.319-.259-.327-.281-.018-.05.475-.719.53-.719.022 0 .2.12.395.268l.356.268-.268.355c-.147.195-.291.354-.321.352-.03-.002-.194-.11-.365-.243z" id="path996"/><path style="fill:#fff;stroke:#04e762;stroke-width:.0022994px" d="M12.287 33.889c-1.038-.273-1.913-1.156-2.178-2.198-.29-1.142.228-2.477 1.217-3.134.572-.38.99-.508 1.656-.508.615 0 1.022.105 1.482.382l.284.172 2.842-1.895c1.563-1.041 2.841-1.913 2.841-1.938 0-.024-.045-.148-.1-.275-.176-.412-.288-.994-.287-1.5 0-.588.097-1.03.357-1.635l.074-.173-.223-.162c-.122-.09-.243-.177-.269-.194-.026-.018.078-.2.236-.412l.283-.381.253.191.253.191.155-.17c.432-.475 1.226-.936 1.927-1.117.39-.101 1.37-.118 1.674-.03.104.031.192.051.196.045l1.164-1.942 1.157-1.931-.186-.225c-1.118-1.343-.51-3.343 1.192-3.918.413-.14 1.127-.12 1.546.044 1.25.486 1.911 1.813 1.523 3.059a2.54 2.54 0 0 1-1.625 1.623c-.378.117-1.032.126-1.392.019-.139-.041-.26-.068-.267-.06-.059.061-2.18 3.634-2.18 3.671 0 .026.092.102.204.168.282.167.665.504.948.833.251.293.618.953.72 1.296.043.148.081.199.136.184.042-.012 1.44-.2 3.106-.419l3.03-.398v-.22c0-1.132 1.155-2.08 2.282-1.872 1.28.236 2.01 1.596 1.47 2.74-.61 1.29-2.2 1.568-3.194.557l-.28-.285-3.145.419c-1.73.23-3.158.426-3.173.435-.016.009-.033.158-.039.332-.028.861-.464 1.812-1.17 2.55l-.195.202.177.253.176.252-.129.096-.38.276-.251.18-.182-.264c-.2-.289-.178-.285-.614-.104-1.35.563-2.941.237-4.124-.845l-.292-.267-2.765 1.843c-1.521 1.014-2.758 1.86-2.748 1.878.432.844.54 1.248.5 1.878-.062.969-.676 1.942-1.522 2.411-.609.338-1.509.46-2.15.292zm1.351-.974c.543-.187.947-.555 1.204-1.098.14-.296.152-.358.152-.823 0-.466-.011-.527-.153-.825a2.016 2.016 0 0 0-.966-.985c-.348-.171-.38-.178-.867-.178-.474 0-.526.01-.851.162-.423.198-.822.595-1.005.998-.165.364-.207 1.018-.09 1.418.17.584.74 1.17 1.31 1.346.334.102.947.095 1.266-.015zm11.124-6.998a2.96 2.96 0 0 0 1.925-1.547c.234-.458.323-.84.32-1.376-.003-.873-.271-1.51-.897-2.132-.624-.62-1.225-.862-2.134-.86-.488.002-.598.019-.96.147-.776.273-1.379.806-1.717 1.516-.24.507-.312.82-.31 1.353.003.512.098.909.324 1.352a3.01 3.01 0 0 0 3.449 1.547zm11.498-3.933a.995.995 0 0 0 .746-.978c0-.445-.198-.756-.599-.94-.372-.17-.84-.078-1.144.227-.19.19-.269.399-.269.713 0 .45.27.831.677.958.263.082.333.084.59.02zm-6.719-7.068c.64-.203 1.082-.978.954-1.672a1.5 1.5 0 0 0-.865-1.133c-.17-.082-.306-.106-.624-.108-.352-.003-.444.015-.678.13a1.58 1.58 0 0 0-.726.747c-.154.34-.144.904.02 1.255.346.737 1.096 1.043 1.92.781z" id="path998"/><path style="fill:#fff;stroke:#04e762;stroke-width:.0022994px" d="M27.065 28.31c-.15-.213-.265-.393-.256-.4.563-.404.717-.508.747-.507.02.002.152.166.292.366.29.413.305.356-.191.704l-.32.224z" id="path1000"/><path style="fill:#fff;stroke:#04e762;stroke-width:.0022994px" d="M28.231 29.939c-.31-.426-.326-.362.19-.718.173-.119.317-.188.339-.163.02.024.146.195.278.38l.24.336-.337.239c-.185.131-.36.252-.387.27-.029.017-.171-.135-.323-.344z" id="path1002"/><path style="fill:#fff;stroke:#04e762;stroke-width:.0022994px" d="M29.542 31.77c-.262-.334-.408-.588-.364-.628a9.02 9.02 0 0 1 .38-.277l.335-.237.269.386.268.387-.374.273-.375.273z" id="path1004"/><path style="fill:#fff;stroke:#04e762;stroke-width:.0022994px" d="M31.882 36.886c-1.529-.414-2.304-2.136-1.577-3.5.154-.288.154-.292.07-.435-.048-.08-.068-.161-.045-.18.023-.02.186-.137.363-.261.27-.19.336-.216.41-.17.07.043.127.035.277-.042.336-.17.693-.25 1.127-.25 1.829 0 3.008 1.885 2.202 3.52-.528 1.073-1.706 1.622-2.827 1.318zm1.248-1.002a1.4 1.4 0 0 0 .723-.71c.137-.277.157-.366.155-.68-.002-.467-.135-.78-.457-1.082-.378-.353-.831-.49-1.32-.4a1.465 1.465 0 0 0-1.112.856c-.1.211-.124.336-.125.623 0 .683.374 1.223 1.006 1.45.31.111.828.085 1.13-.057z" id="path1006"/></svg>